<?xml version="1.0" encoding="iso-8859-1"?>
<!-- Uploaded to: SVG Repo, www.svgrepo.com, Generator: SVG Repo Mixer Tools -->
<svg fill="#000000" version="1.1" id="Layer_1" xmlns="http://www.w3.org/2000/svg" xmlns:xlink="http://www.w3.org/1999/xlink" 
	 viewBox="0 0 512 512" xml:space="preserve">
<g>
	<g>
		<rect x="96.023" y="490.722" width="351.086" height="21.278"/>
	</g>
</g>
<g>
	<g>
		<path d="M488.668,67.829c-1.182-1.472-2.717-2.393-4.348-3.055L422.662,3.117c-2.016-2.016-4.769-3.029-7.605-3.117
			c-2.847,0.021-5.569,1.184-7.553,3.231L68.439,352.935c-3.605,3.714-3.774,9.294-0.914,13.392c-0.242,0.34-0.585,0.566-0.79,0.94
			L2.901,484.296c-2.255,4.145-1.517,9.283,1.818,12.618c2.047,2.047,4.769,3.117,7.522,3.117c1.746,0,3.491-0.426,5.091-1.299
			l117.029-63.834c0.431-0.236,0.699,0.353,1.086,0.069c1.602,0.925,3.343,2.56,5.221,2.56c0.031,0,0.052,0,0.083,0
			c2.847,0,5.569-2.164,7.553-4.21L479.252,91.5c8.003,12.097,11.119,21.809,9.333,29.924
			c-3.896,17.739-32.281,33.092-66.182,50.043c-67.241,33.626-89.662,109.7-90.587,112.921c-1.61,5.647,1.662,11.492,7.304,13.113
			c0.977,0.281,1.964,0.4,2.93,0.4c4.623,0,8.883-3.047,10.224-7.707c0.208-0.701,20.914-70.45,79.647-99.812
			c40.26-20.13,71.532-37.674,77.455-64.64C513.135,108.6,506.559,90.192,488.668,67.829z M38.901,462.733l43.948-80.572
			l36.626,36.623L38.901,462.733z M140.553,409.766l-49.548-49.538L415.255,25.803l49.548,49.543L140.553,409.766z"/>
	</g>
</g>
</svg>