<?xml version="1.0" encoding="UTF-8" standalone="no"?>
<!-- Created with Inkscape (http://www.inkscape.org/) -->

<svg
   version="1.1"
   id="svg1"
   width="4000"
   height="4000"
   viewBox="0 0 4000 4000"
   sodipodi:docname="vecteezy_simple-zen-circle_18862181-0.eps"
   xmlns:inkscape="http://www.inkscape.org/namespaces/inkscape"
   xmlns:sodipodi="http://sodipodi.sourceforge.net/DTD/sodipodi-0.dtd"
   xmlns="http://www.w3.org/2000/svg"
   xmlns:svg="http://www.w3.org/2000/svg">
  <defs
     id="defs1" />
  <sodipodi:namedview
     id="namedview1"
     pagecolor="#ffffff"
     bordercolor="#000000"
     borderopacity="0.25"
     inkscape:showpageshadow="2"
     inkscape:pageopacity="0.0"
     inkscape:pagecheckerboard="0"
     inkscape:deskcolor="#d1d1d1">
    <inkscape:page
       x="0"
       y="0"
       inkscape:label="1"
       id="page1"
       width="4000"
       height="4000"
       margin="0"
       bleed="0" />
  </sodipodi:namedview>
  <g
     id="g1"
     inkscape:groupmode="layer"
     inkscape:label="1">
    <path
       id="path1"
       d="M 113.48,30000 H 29886.5 c 62.9,0 113.5,-50.6 113.5,-113.5 V 113.48 C 30000,50.6211 29949.4,0 29886.5,0 H 113.48 C 50.6211,0 0,50.6211 0,113.48 V 29886.5 c 0,62.9 50.6211,113.5 113.48,113.5 z"
       style="fill:#ffffff;fill-opacity:1;fill-rule:nonzero;stroke:none"
       transform="matrix(0.13333333,0,0,-0.13333333,0,4000)" />
    <path
       id="path2"
       d="m 16350.2,19661.1 v 0 c 7,0.8 12.8,6.4 16.5,16.9 6.6,18.9 -6.7,32.9 -29.2,30.8 -22.7,-2.2 -27.7,-17.9 -11.7,-34.7 8.9,-9.4 17.1,-13.6 24.2,-13 0.1,0 0.2,0 0.2,0 z m -5733.4,-2694 c 8.8,12.5 21.2,38.1 38.1,75.6 63.3,139.5 62.4,186.6 -83.2,-9.8 -221.5,-299 -54.2,-126.2 -41.5,-110.3 42.1,53 75.9,72.9 74.6,47.4 -0.8,-14.9 3.4,-15.3 11.8,-2.9 0,0 0.1,0 0.2,0 z m 1635.7,1932.9 c 18.9,13.3 40,29.6 58.1,45.7 l -0.1,0.2 c 36.7,32.3 28.8,33.2 -39.4,-14 -58.9,-40.8 -86.3,-67.5 -65.6,-59.6 10.6,4.1 28,14.4 47,27.7 z m 6968,-629.8 c 39.5,-41.5 57.6,-59.7 53.9,-52.2 l 0.1,0.1 c -7,14.4 -96.5,129.4 -286,320.7 -156.6,158 -305.4,285.2 -377.1,340.9 -153.1,119.3 -63.2,36.5 6,-25.4 121.2,-108.7 242.8,-218.9 413,-388.4 83.9,-83.6 154.3,-158.2 190,-195.8 z M 9905.27,14653.5 c 4.22,112.4 11.37,228.2 23.71,348.6 50.43,491.7 111.42,713.7 92.32,688.1 -15.8,-21.5 -35.56,-94.3 -42.94,-163.6 -7.27,-68.4 -21.88,-140.1 -33.63,-158 -16.1,-24.6 -70.71,-425.4 -69.73,-784.5 10.51,24.5 19.8,44.9 30.27,69.4 z m 259.93,1494.4 c 17.4,54.5 19.1,85.1 1.9,66.3 -17.1,-18.6 -39.3,-60.8 -49.8,-94.6 -10.4,-33.6 -10.5,-63.6 -0.7,-66.6 9.7,-3 31.2,39.9 48.6,94.9 z m 8172.1,2922 c 18.8,-12.1 33.4,-20.9 42.5,-25 44.2,-20.1 25.6,6.9 -84.5,88.8 -203.9,151.8 -423.4,270.8 -428.6,260.6 -6.2,-12.1 249.8,-175.4 403.2,-279.6 25.5,-17.3 48.7,-32.8 67.4,-44.8 z m -5245.5,427.2 c 14.6,6.7 40.2,27.8 56.8,46.5 16.4,18.5 1.4,21.4 -34.5,5.1 -35.6,-16.1 -61.1,-37.4 -56.8,-46.8 4.3,-9.4 20,-11.5 34.5,-4.8 z m 4594.8,-27.5 c 24.8,-11.4 40.6,-17.2 50.3,-18.3 6.6,-0.6 10.3,0.8 11.9,4.2 1,2.2 -0.6,5.9 -4.7,10.8 -17,20.1 -74.6,59.3 -147.7,96.2 h -0.1 c -293.2,148.2 -385,170.2 -389.8,156.3 -2.6,-7.6 121.4,-67.2 269.1,-141.6 104.2,-52.6 169.7,-88.2 211,-107.4 z m -1340.1,439.4 c 20.7,-5.9 36.5,-5.6 49,0.4 22.6,11 175.9,-6.5 411.4,-70 425.9,-114.2 365.5,-61.1 -126.6,79.4 -172.3,49.3 -315.5,88.4 -313.8,98 1.7,9.6 -42.9,26 -99.5,35.3 -56.4,9.2 -101.2,28.5 -99,44 4.7,33.1 780.5,-36.1 1642,-491.2 128.4,-66.3 258.4,-141.1 389,-225.1 346,-222.3 608.7,-448.2 690,-515.7 12,-10 163.1,-126.3 -95.9,106 -99.7,89.5 -196.4,169.9 -315.5,256.8 -105.1,76.8 -337.2,238.8 -656.6,401.1 -175.4,91 -411.3,200.1 -704.4,300.9 -751.2,258.5 -1446.8,301.5 -1474.1,310.4 -78.5,25.4 -149.6,22.1 -194.4,-7.7 -34.2,-22.8 16.9,-26 197.3,-35.9 338.1,-18.5 457.3,-59.8 451.3,-106 -2.5,-19.5 -9.2,-27.9 -109.2,-20.9 -33.3,2.4 -360.2,35.8 -672.7,37.8 -502.5,3.3 -947.1,-61.5 -1301.6,-147.2 -189,-45.6 -352.3,-90.9 -527,-145.6 -103.8,-31.5 -192.9,-60.7 -251.4,-78.2 -269.5,-80.8 -492.9,-207.4 -477.3,-237.9 4.5,-8.7 -285.7,-166.8 -622.6,-408.1 -391.7,-280.6 -547.6,-452.2 -488.5,-414.1 23.1,14.9 212,186.3 534.5,409 327.5,226.2 776.9,488.7 1323.4,676.6 99.5,35.3 202.1,68.1 307.5,98 976.3,277.1 1815,196 2029.1,173 313.8,-33.8 395.6,-69.6 426.6,-86.9 32.7,-18.3 58.2,-30.3 79.1,-36.1 z M 10462,17053.5 h -0.1 c 1.5,5.8 -8.4,2.8 -28.5,-7.1 -28,-13.8 -54.5,-42.8 -58.6,-64.1 -4.4,-21.5 18.5,-9.2 50.5,25.6 23.2,25.5 35.4,39.8 36.7,45.6 z m -184.1,-236.1 c 3.5,7.6 5.9,14.6 7.2,20.9 v 0 c 2.6,12.6 0.8,22.1 -6.2,25.5 -5.5,2.6 -6.5,13 -2.1,32.3 8.8,40.6 44.5,133 117.4,274.4 h -0.1 c 108.2,209.9 78.4,176.2 -78.9,-133.4 -23.7,-46.6 -44.6,-89.8 -62.9,-129 -96,-201.1 -86.3,-206.4 -83.1,-200.2 30.9,59.8 56.7,88.9 56.5,67.5 -0.1,-22 17.3,-12.9 38.8,18.6 5.5,7.9 9.9,15.9 13.4,23.4 z m 1135.9,1636.9 c 90.3,89.9 97,118.9 -40.7,26.4 -84,-56.6 -95.7,-57.4 -56.3,19.5 36.8,71.8 36.4,79.6 -23.4,19.9 -40.1,-40 -41.8,-30.7 12.2,42.6 56.8,77.3 113.7,132 183.1,177.1 63.2,41.5 128.9,98.4 179.5,155.6 52,59.1 126.8,118.4 213.7,167.9 73.5,41.8 259.7,166.1 419.2,267.4 159.7,101.6 297.5,169.6 301.2,163 3.6,-6.6 66.3,32.4 140.9,84.2 93.4,65 213.2,125.8 392.2,186.9 144.2,49.2 263.4,90.5 271,103.3 1.5,2.6 20,11.2 52.8,24.2 137.7,56 463.6,168.3 897.2,239.1 577.9,94.3 975.5,81.7 975.5,92.2 0,9.8 -199.2,20.5 -442.1,3 -316,-22.2 -491.9,-48.5 -717.9,-80.4 -187,-26.4 175.1,127.9 1142.2,124.8 833.6,-2.8 1427.3,-171 1429.7,-161.3 2.1,9.1 -54.1,31 -125.7,46.9 -95.9,21.3 -137.5,47.2 -159.3,103.5 -35.2,90.9 11.1,111.1 229.1,49.8 92.3,-26 169,-42.4 171.1,-34 2.2,8.7 172.9,-25.3 373.8,-90 121.8,-39.1 242,-82.3 360.4,-129.4 -144.7,63 -292.7,120.1 -443.3,171.2 -378.1,128.3 -454.5,139.7 -431,162.4 20.1,19.3 -5.1,32.1 -96.2,42.4 -85.7,9.8 -113.4,18.7 -85.7,32.5 54.3,26.9 361.1,-35 352.4,-69.3 -5.5,-21.6 47.3,-33.5 265.7,-87.5 176.8,-43.6 449,-133 715.2,-255.3 46.3,-21.3 88.2,-41.1 124.8,-58.7 164.8,-77.8 260.6,-127.7 185.1,-77.4 -18,12 -77.7,78.1 310.7,-132.4 443,-240 678.2,-390.1 329.1,-164.9 -113.6,73.4 -217.9,146.8 -237.3,173 -44.3,60.6 -260,164.8 -277.3,132.9 -9,-16.7 -96.1,20.6 -292.1,106.9 -193.3,86.6 -604.2,271.1 -1150.4,411.5 -43.2,11 -1706.7,319.4 -859,138.1 94.9,-20.5 228.3,-43.5 278.5,-46.3 60.4,-3.5 96.7,-20.3 93.2,-41.6 -3.2,-19.3 34.9,-46.4 84,-60.8 53.3,-15.7 17.9,-13.2 -60.3,-0.3 -80,13.2 -191.9,40.5 -238.3,59.3 -68.4,27.5 -102.6,31.5 -146.7,18.9 -38,-10.9 -191.4,2.2 -424.8,16.2 -540.3,32.4 -703.3,-12.5 -481.3,31.9 79.1,15.7 88.4,22.7 -61.1,16.3 -97.1,-4.2 -150.3,-17 -124.9,-25.6 26.5,-8.9 -19.3,-19.7 -98.6,-26.1 -108.7,-8.9 -137.3,-3.8 -110.3,27.9 19.4,22.9 56.7,43.6 82.8,46.3 525.3,53.3 957.3,33.6 977.9,45.4 14.8,8.4 110.6,9 214.1,-1.9 150.9,-15.8 625.8,-35.6 1251.6,-193.3 331.8,-83.6 613.3,-186 837,-282.5 167.6,-71 289.9,-133.8 321,-151.3 40.2,-22.8 299.4,-153.5 413.2,-211.1 157,-79.4 309.1,-173.4 367.6,-218.4 131.2,-101.1 317.6,-227.9 448.7,-328.9 318.2,-245.6 323.9,-256.5 104.7,-62.1 -169.7,150.5 -654.8,552.9 -1330.2,880.1 -103.3,50 -204.5,95.5 -303.5,136.9 -499.8,212.2 -921.4,308 -960.1,323.1 -47.4,18.3 -131.1,33.8 -189.9,34.7 -52.4,0.8 -217,27.2 -343.2,51.4 -418.8,80.6 -529.5,69.6 -552.3,66.7 -30.6,-3.9 -140.9,1.1 -236.8,8.4 -127.7,9.9 -177.5,22.1 -176.3,49.4 1.5,31.2 37,36.1 194,14 141,-20 191.7,-22.4 193.9,-1.5 1.7,15.6 113.3,26.1 248.8,17.7 302.3,-18.9 287.2,-26.5 316.9,-67.5 22.4,-30.8 32,-31.4 45.1,-1.4 14.8,33 92.5,43.4 555.3,-75.7 303.9,-78.3 563,-178.9 628.2,-213.9 55.8,-30 104.2,-47.9 108.2,-38.6 4.2,9.6 84.4,-22.6 182.9,-78.3 7.4,-4.2 14.6,-8.2 21.6,-12.1 112.9,-62.3 184,-93.2 256.2,-106.6 63.4,-11.8 147.8,-49.6 209.9,-94.8 56.5,-41.2 125.4,-80.6 151.7,-86 28.1,-5.6 156.6,-84.4 285.7,-184 101.1,-78 332.7,-251.9 396.1,-294.8 135.3,-91.9 112.8,-62.7 -143.6,127 -222.6,164.7 -314.1,221.2 -261.6,207.9 32.9,-8.4 -10.2,37.2 -232.2,171.1 -98.5,59.3 -198.3,115.8 -299.4,169.4 108.2,-50.2 215.4,-103.9 321.5,-160.8 206.6,-110.8 410.4,-252 579.5,-398.4 201.7,-174.7 257.9,-227.1 271.5,-211.4 9,10.2 168.1,-101.3 348.6,-258.6 190.5,-166 369.1,-350.7 487.2,-497.9 59.8,-74.6 126.8,-150.1 148.3,-164 27.5,-17.8 131.6,-126.6 309,-387.8 156.5,-230.3 480.5,-744 728.8,-1456.3 6,-16.9 11.9,-34 17.8,-51.2 352.7,-1028.2 326.7,-1565.3 313.4,-1566.5 -10.7,-1 -26.9,82.4 -38.8,184.6 -23,194.1 -23.9,160.6 -30.3,30 -8.7,-174 3.2,-190.2 47.3,-550.1 28,-227.9 34.4,-416.7 1.6,-749.1 -12.3,-124.5 -27.9,-248.5 -46.6,-371.8 7.5,110.7 12.5,221.6 14.9,332.4 4,182.8 5.4,404.5 10.7,493.3 5.4,90.9 -1.7,207 -14.7,266.5 -14.2,63.5 -115.2,788.8 -131.3,938 -26.3,243.6 -129.7,530.8 -128.4,392.6 0.3,-33.8 -13.2,40.7 -32.8,153.5 -32.9,189.6 -43.8,200.2 -62.8,159 -41.3,-88.9 -5.1,-135.5 106.7,-598.9 90.5,-375.2 135.2,-732.3 151.4,-1034.5 15.7,-293.2 2.1,-469.1 -6.5,-443.8 -12.6,37.1 -16.6,-126.3 -56.2,-494.3 -41.5,-385 -86.2,-536.6 -99.8,-519.6 -10.8,13.3 -28.6,-29.7 -41,-94.7 -12.4,-65.1 -31.9,-116.2 -42,-114 -10.3,2.2 -41.8,-145.2 -81.4,-315.8 -39.7,-170.5 -89.3,-363.7 -108.3,-460.7 -8.8,-44.9 8,-28.6 66.5,189.5 71.5,266.3 83.9,324.3 149.1,450.7 50.2,97.6 96.5,243.2 137.9,524.3 19.4,132.2 134.8,935.2 69.6,170.2 -43.3,-508.6 -118.3,-779.3 -167,-933.7 -23.1,-73.1 -47.4,-145.7 -73,-217.8 3,56.1 5.3,112 6.8,167.9 6,220.2 -33.6,121.8 -60.4,-50.3 -12.1,-77.9 -126.8,-521 -356,-1011.9 -14.4,-31.2 -29.2,-62.4 -44.3,-93.7 -249.5,-515.6 -567.9,-967.2 -615.5,-1049.3 -97.6,-168.3 -324.5,-449.72 -291.6,-362.1 12.1,32 17.5,45.4 -41.7,-21.4 -21.6,-24.42 -224.4,-263.99 -468.2,-502.43 -633.2,-619.1 -1408.4,-1116.37 -2236,-1414.02 -430.1,-156.8 -789.4,-227.46 -941.7,-250.12 -253.9,-37.69 -444.3,-58.32 -491.1,-74.92 -46.6,-16.37 -210.4,-29.77 -444.1,-18.56 -397.6,18.99 -614,31.02 -616.4,-17.3 -1.2,-26.25 -77.7,-40.35 -537.7,31.52 -373.5,58.32 -528,103.83 -476.9,71.72 29.6,-18.63 -1.5,-22.07 -82,-4.61 -99.8,21.68 -119.9,40.12 -84.7,67.5 65.3,50.74 -11.3,56.72 -285.5,73.13 -236.6,14.18 -326.4,39.29 -523.3,142.38 -134.6,70.47 -143.2,72.97 -154.1,-21.25 -6.2,-54.1 8.3,-105.94 32.4,-115.23 22.1,-8.56 115.1,-62.89 201.7,-114.89 88.2,-53 164.5,-86.56 167.2,-77.5 2.8,9.1 -46.4,43.95 -108.3,78.6 -65.5,36.68 -87.1,71.09 -54.4,80.9 39.8,11.91 17.6,30.27 -64.2,60.07 -269.1,98.01 -57.1,58.6 142.5,8.05 172,-43.59 274.8,-71.41 326.9,-99.8 40.1,-22.19 49.7,-33.75 17.6,-24.77 -30.7,8.59 -9.8,-23.87 50.8,-72.69 112.9,-90.94 257.6,-139.97 529.6,-156.18 147,-8.75 164.8,-10.47 108.8,-38.08 -35.3,-17.42 -25,-35.98 27.2,-44.42 48.5,-7.77 90.3,-0.27 92.6,15.98 3.4,23.52 57.8,15.66 270.6,-17.54 224.8,-35.12 622,-98.12 202.2,-65.59 -168.6,13.09 -213.6,13.91 -174,-15.03 36.7,-26.84 12.3,-31.76 -151.1,-1.84 -66.6,12.23 -132.9,25.43 -198.9,39.57 62.1,-17.03 124.5,-33.24 187.3,-48.59 108.8,-26.57 346.8,-125.75 -220,-26.45 -284.1,49.81 -344.2,65.86 -398.8,42.7 -69.1,-29.03 -295.4,-11.29 -786.3,155.78 -202.3,68.79 -364.5,125 -391.6,121.44 -23.8,-3.12 -174.4,45.32 -422,161.1 -69.2,32.15 -146,69.88 -229.2,113.63 -324.9,170.9 -646.2,376.17 -731.3,422.85 -95.5,52.38 -273.5,171.21 -434.7,299.73 -201.6,160.54 -669.8,548.32 -1154.65,1152.03 -442.42,550.93 -732.81,1084.73 -754.57,1105.93 -23.59,23 -74.69,126.3 -121.33,256.3 -39.76,110.8 -112.93,291.3 -147.65,360.5 -406.65,809.3 235.7,-630.1 345.54,-826.6 213.17,-381.3 439.92,-708.1 460.04,-752.8 21.52,-48 102.93,-160.79 197.19,-266.18 158.28,-176.88 281.91,-338.56 611.13,-672.27 328.2,-332.65 460.1,-422.38 398.5,-352.19 -48.5,55.55 -57.2,83.99 -23,65 34.4,-19.18 91.1,-75.39 125,-123.43 37.6,-53.25 150.7,-159.85 258.2,-246.61 105.8,-85.46 194.9,-143.04 167.1,-104.53 -20.3,28.01 17.3,11.68 81.6,-32.69 68.8,-47.58 93.6,-73.91 55.1,-63.6 -37,9.93 4.3,-29.6 208.6,-145.89 162.4,-92.46 294.8,-168.75 318.5,-194.77 22.4,-24.76 146.5,-101.87 286.1,-170.66 3.6,-1.76 7.1,-3.52 10.7,-5.24 135.6,-66.4 309,-155.23 354.8,-186.79 56.2,-38.75 246,-127.23 446.7,-196.37 1182,-408.24 1651.4,-375.94 1453.6,-377.19 -74.3,-0.51 -765.1,75.27 -1546.5,356.13 -315,113.21 -572.1,230 -760.6,322.58 -412.1,201.72 -573.5,309.22 -578.8,300.28 -5.9,-10.08 91.4,-87.35 220.3,-166.57 415.9,-255.7 312.5,-241.01 -197.8,59.22 -385.7,227.11 -322.4,144.92 366.7,-224.1 47.4,-25.39 94,-49.73 140,-73.09 1097.7,-559.06 1724.7,-629.76 1760.8,-663.59 46.3,-43.32 -664.8,-0.08 -1806.4,567.7 -17.4,8.59 -34.8,17.34 -52.3,26.21 -570.8,289.8 -938.6,563.12 -871.9,509.68 85.7,-68.08 107.8,-89.61 -53.2,10.32 -129.3,80.23 -324.6,166.21 -82.7,-5.28 63.4,-44.96 120.3,-73.94 125.6,-65.86 12.8,19.3 207.5,-135.04 539.8,-368.24 189.2,-132.73 284,-180.82 314,-178.36 5.8,0.47 19.7,-3.44 41.3,-11.37 79,-29.14 260.1,-113.67 529.1,-221.87 474.1,-190.63 500.5,-190.04 185.3,-85.7 -247,81.83 -342.8,119.53 -233.2,58.24 172.5,-96.41 720.7,-331.29 1416.2,-476.37 99.5,-20.78 1118,-219.1 132.3,-74.22 -421.2,61.84 189.5,-34.29 354.6,-53.12 486.4,-55.24 781,-59.06 1073.3,-68.75 197.7,-6.6 359.4,2.62 358.9,10.74 -0.4,7.3 167.3,15.08 373.4,31.13 258.3,20.16 398.6,37.46 605,60.08 92.1,10.12 169.1,12.58 171,3.13 2,-9.81 -76.1,-25.79 -183.9,-34.26 -122,-9.69 -206.1,-22.03 -242.3,-39.96 -47.4,-23.36 -905.5,-193.24 -2052.6,-65.55 -181.6,20.12 -373.5,59.26 -453.4,86.41 -108.9,36.95 -126.2,40.47 -74.6,1.64 44.3,-33.52 27.3,-44.34 -271.3,29.22 -315.7,77.81 -655.8,158.12 -495.3,93.04 63.4,-25.7 250.6,-86.05 461.8,-139.92 210,-53.59 402.5,-90.16 462.3,-96.52 80.1,-8.67 432.4,-63.24 922.4,-78.75 624.9,-19.69 882.8,11.83 1030.4,4.06 135.2,-7.19 238.7,-11.05 -71.7,-22.42 -149.9,-5.47 -268.9,-13.32 -268.5,-23.48 0.5,-10.04 210.6,-13.01 466.6,10.08 255.7,23.01 -238.7,-76.56 -1104.1,-50.98 -1058.1,31.17 -1514.2,181.49 -1419.2,148.87 91.7,-31.52 487,-119.34 949.3,-160.98 446.8,-40.23 814.5,-38.86 814.5,-46.72 0,-7.81 317.6,-10.97 703.9,30.28 525.1,56.05 680.2,96.48 629,70 -42.4,-21.76 -213,-58.24 -476.6,-81.95 -239.4,-21.53 -464,-30.98 -164.1,-25.63 152.8,2.62 441.3,34.45 716.4,91.91 278.5,58.21 466.8,104.18 469.4,93.56 2.4,-9.96 -28.8,-24.96 -69.4,-33.09 -36.5,-7.42 -142.4,-35.58 -218.2,-57.61 -90.5,-26.21 -221.9,-59.14 -341.3,-83.95 -38.4,-8.01 -110.3,-31.05 155.1,16.45 183.8,32.89 408.2,73 458.8,75.82 76.4,4.25 152.8,26.56 254.8,76.95 99.1,48.91 166.1,72.69 215.2,73.12 34.5,0.28 144.5,29.97 281.6,80.98 30.6,11.41 62.4,23.87 95.1,37.27 134.7,55.19 478.3,188.71 625.1,243.39 243.5,90.55 244.9,18.83 -706.8,-319.72 -220.1,-77.93 -506,-167.93 -847.1,-247.31 -759.1,-176.64 -1366.8,-199.57 -1604.8,-203.75 -291.6,-5.11 -376,7.5 -375.9,18.68 0.3,20.31 -148.3,17.77 -601.1,57.03 -390.7,33.86 -596.8,81.4 -594.7,95.54 1.9,11.88 -22.9,21.06 -55.5,20.43 -32.2,-0.62 -14.4,-26.29 41.9,-56.79 98.8,-53.52 62.8,-105 -862.8,146.72 -605.5,164.25 -987.7,330.31 -1222.5,422.07 -72,28.16 -143.8,57.42 -215.2,87.77 -22.7,9.69 -45.3,19.49 -68,29.37 21.7,-11.79 43.5,-23.51 65.3,-35.15 83.6,-44.38 168,-87.31 253.2,-128.71 235.6,-114.57 962,-436.18 1941,-611.29 996.4,-178.21 1775.2,-133.24 2082,-117.11 279.6,14.72 696.7,56.6 1165.1,156.68 335.2,71.6 637.7,153.51 938.8,250.12 99.8,32.22 183.7,60.97 249.6,83.55 302.7,103.71 850.5,335.78 1434.7,707.07 775,492.46 979.2,709.38 1217.8,888.98 197,148.36 514.2,419.65 827.2,753.21 282.9,301.48 546.4,625.7 612.1,693.55 69.7,71.99 186.3,228.28 271.2,369.22 26.7,44.38 277.7,450.12 308.9,499.52 48.7,77.1 94.1,156.3 129.6,224.2 29,55.8 49.8,101.1 57.4,124 16.7,50.1 47,105.1 67,121.3 22,17.7 141.3,274.2 254.3,598.1 120,343.9 208.7,689.2 257.3,964.7 40.9,231.5 75.9,453.4 108.6,744.7 49.3,439.2 18.4,315.3 -1,216.2 -48,-244.9 -28.4,-121.6 -5.5,54.5 41,316.4 4.4,811.3 -40.1,638.4 -23.6,-91.8 -48.5,263.7 -18.4,487.1 20.9,155.4 -24.4,590.6 -74.2,718 -13.3,34.5 -27.2,133.7 -31.4,217.1 -7.8,154.4 -26.4,194.3 -131.2,288.4 -52,46.5 -138.7,349.7 -100.8,357.4 7.6,1.6 -41,294.1 -138.5,643.4 -48.5,173.1 -96.5,328.9 -134.8,451.5 -65.6,208.6 -104.8,329.1 -143.6,468.3 -54.9,196.6 -152.6,458 -377.7,861.9 -171.1,307.6 -339.8,573.9 -350.1,607.6 -13.2,42.8 130.1,-77.8 435.8,-689.8 145.1,-290.5 262.2,-556.7 282.9,-581.3 20,-24.1 20.2,-10.2 -1.3,32.9 -21.2,42.6 -156.3,361.2 -329.5,693.6 -203.8,391 -466.2,795.9 -738.7,1141 -310.5,393.3 -619.5,735.2 -950.5,1060.8 -307.1,302.2 -562.9,519.4 -614.9,584.2 -148.6,185.3 -244.2,276 -331.9,335.4 -52.2,35.3 -18.9,-13.7 62.1,-102.3 83.3,-91 128.1,-159 104.7,-150.6 -31,11.1 -562.1,415.8 -1216.9,758 -769.9,400.1 -1399,583.1 -1756.2,690.8 -276.7,83.4 -619.6,155.8 -909.5,191.6 -455.7,56.3 -958.4,98.4 -1558,85.4 -542.5,-11.7 -1008.6,-73.3 -1108.5,-74 -83.3,-0.6 -248.1,4.9 355.2,93.1 312.7,45.7 606.2,62.1 713.5,59 149,-4.2 339.3,-5.7 488.3,-9.9 106.3,-3.2 212.5,-8.3 318.5,-15.3 -105.8,12.1 -212.1,22.4 -318.6,30.7 -163.9,12.7 -260.7,22.2 -160.5,25.4 151.1,4.8 203.8,13.5 -29.4,20.3 -192.7,5.6 -487.5,1.1 -825.6,-34.3 -939.8,-98.6 -1032,-166.4 -1132.5,-142.1 -49.3,11.9 -98.5,23.1 -117.7,26.9 -17.1,3.4 -39.4,12.6 -49.3,20.6 -10.1,8.1 -137.6,-18.1 -282.9,-63.4 -216.6,-67.6 -397.2,-106.7 -197.5,-18.8 42.2,18.6 459.3,156.1 935.9,252.3 521.1,105.4 1115.5,173.9 1345.3,201.6 271.9,32.9 537.8,41.8 633.1,34.9 85.3,-6.3 155.1,-5.6 155.2,3.5 0.3,8.9 988.7,18.7 2145.4,-292.3 729.3,-196.2 1285.2,-443.8 1592,-589.4 354.5,-169.7 517,-263.4 569.7,-283.5 79.7,-30.2 413.5,-209.1 837.4,-522.5 372.5,-275.5 699.7,-564 755.9,-605.8 60,-44.6 201.6,-183.2 324.5,-326.5 117.9,-137.1 241.2,-278.9 269.8,-301.4 49.1,-38.9 48.1,17.5 -327.1,405.3 -273.5,282.6 -444.4,448 -216.4,278.2 138.7,-103.3 157.7,-43.1 -24.1,156.3 -87.8,96.3 -141.3,168.6 -113.8,161.6 68.1,-17.5 -82.9,175.7 -547.7,516.5 -241.2,177 -580.4,411.3 -748.2,529.4 -332.5,234.1 -519.3,334.1 -290.1,177.9 253.7,-172.9 -10.2,-37.7 -219.3,82.8 -49.6,28.7 -86.5,50.5 -111.3,66.7 -45.6,29.4 -48.2,38.8 -1.3,24.7 4.5,-1.4 8.3,-2.3 11.6,-3 16.3,-3.2 18.8,2.4 7.7,16.3 -21.8,27.3 -101.4,91.6 -234.9,181 -157.3,105.4 -257.4,166.3 -392.6,227.3 -120.2,54.3 -359.4,147.8 -730,256.7 -437.5,128.7 -801.4,205.6 -799.7,213.9 1.7,8.3 -113.7,22.3 -256.1,26.8 -130.6,4.1 -355.1,19.6 -447.7,32.1 -104.6,14.1 -191.5,11 -193.3,-4.5 -1.7,-15.5 69.2,-36.3 157,-47.9 85,-11.2 128.9,-9.2 88.6,7.6 -72.9,30.6 42.8,76.9 1101,-247.4 746.1,-228.6 565.7,-170.9 -332.5,49.7 -750.5,184.5 -1403.3,214.7 -1404.9,191.4 -0.4,-6.5 -297.4,14.7 -661.2,18.9 -560.5,6.3 -626,-15.4 -431.3,-26.2 126.4,-7.3 451.3,-8.4 722.8,-14.9 280.1,-6.9 549.9,-37.5 637.1,-58.7 78.9,-19.2 573.1,-87.1 1087.7,-208.8 514.6,-121.8 951,-287.7 983.8,-309.8 31.4,-21 179.8,-76.9 321.6,-125.2 160.5,-54.7 431,-175.2 668.5,-307.5 12.8,-7.2 25.2,-14.1 37,-20.8 353.4,-201.5 172.8,-109.4 -9.1,-19.2 -127.5,62.5 -363.5,176.1 -665.7,297.4 -680.1,272.9 -1288.6,424.5 -1773.2,515.4 -384.1,72.2 -702.4,96.4 -703.2,87.2 -1.6,-16.5 -398,28 -954.5,33 -600.7,5.5 -1228.8,-37.9 -1902.7,-155 -177.1,-30.7 -875.3,-146.5 -151.4,21 154.2,35.7 279.8,67.6 278.2,76.3 -1.7,8.8 -348,-44.6 -764.1,-158.9 -170.3,-46.8 -338.4,-96.3 -514.2,-152.3 -285.4,-92.5 -467.7,-161.8 -621.8,-216.1 -128.6,-45.3 -256.3,-93.4 -383,-144.3 148.5,69 299,134.1 451.1,195.4 214.9,86.4 407.2,157.5 539.2,207.1 319.6,118.3 468.9,191.2 93.8,131.3 -50.4,-8 -94.3,-16 -130.8,-23.4 -205,-42.2 -159.2,-50.3 5.2,-33.1 l 5.9,0.6 c 175.3,17.4 168.9,11.6 14.8,-43.2 -17.2,-6.3 -37,-13.4 -58.2,-21.1 -128.5,-46.8 -238.7,-79.2 -243.3,-67.1 -7.4,11.1 -116.9,2.3 -246.6,-24.6 -78.5,-16.2 -156.9,-33.4 -235.2,-51.7 43.8,0.5 87.6,0.6 131.2,0.5 207.1,-0.8 161.6,-25.9 -102,-130.1 -191.5,-75.6 -435.6,-183.8 -748.8,-354.7 -46,-25 -63.2,-14.8 -37.4,23.8 26.5,39.6 0.6,43.9 -62.6,7.5 -60.2,-34.7 -104.1,-72 -98.3,-82 7.6,-13.1 -32.2,-35.7 -141.9,-85 -115.1,-51.6 -158.3,-80.5 -178.5,-113.2 -18.4,-29.9 -89,-70.8 -216.34,-131.2 -184.26,-87.4 -179.33,-91 -96.99,-87.4 78.98,3.5 55.12,-18.9 -104.49,-135.7 -240.43,-175.9 -380.08,-253.9 -199.18,-64 114.8,120.5 126.25,135.9 -49.85,30.7 -140.85,-84.2 -192.93,-113.5 63.4,94.9 140.94,114.8 297.11,224 362.7,259.7 291.55,159.4 31.29,82.3 -371.06,-134.6 -0.66,-1 -1.44,-1.4 -2.18,-2 -613.09,-330.7 -773.79,-487.3 -276.64,-221 161.79,86.8 128,61.8 -46.22,-79.3 -112.38,-91.1 -184.92,-143 -159.29,-107.2 24.06,33.5 -1.17,23.9 -58.56,-25.1 -60.43,-51.6 -69.25,-79.8 -24.18,-68.1 43.52,11.2 41.45,-18.2 -2.07,-64.3 -43.55,-46.1 -116.29,-94.9 -160.78,-107.5 -45.35,-12.8 -120.86,-59.2 -168.87,-104.5 -106.83,-100.7 -2.3,-41.2 225.51,98.6 265.86,163.3 -4.02,-111.1 -146.79,-206.4 -86.88,-57.9 -113.05,-73.3 15,27.3 108.24,85.1 134.8,106.5 0.35,22.2 -145.67,-91.3 -352.11,-277.7 -225.04,-202.7 46.4,27.5 23.36,-0.9 -49.38,-67.2 -67.11,-61.2 -127.85,-106.3 -135.82,-98.5 -7.93,7.9 -53.32,-16.1 -100.47,-54 -52.3,-42 -49.41,-46.5 -3,-17.7 66.68,41.4 34.29,6.6 -89.07,-117 -111.48,-111.6 -176.4,-197 -191.95,-244.3 -13.28,-40.2 12.42,-29.2 56.48,22.1 46.33,54 142.86,144.9 224.11,209.8 87.57,69.7 208.16,188.1 312.85,303.5 153.9,169.6 144.14,148.2 82.85,64.1 -81.56,-111.8 -134.81,-158.1 -367.93,-383.8 -177.3,-172 -274.3,-287.7 -281.45,-315.1 -15.66,-59.3 -233.82,-320.3 -401.09,-491 -166.8,-170.2 -255.51,-235.2 12.38,121.6 135.86,181 181.57,240.9 98.01,162.6 -62.19,-58.2 -178.36,-209.6 -272.89,-351.6 -92.77,-139.5 -155.08,-255.1 -115.31,-219.6 31.44,28.1 -6.13,-39.9 -76.33,-147.8 -81.21,-124.8 -166.76,-228 -233.36,-276.4 -58.36,-42.5 -98.98,-87.1 -90.7,-98.4 8.36,-10.9 -39.81,-114.3 -103.95,-231.1 -64.96,-118.3 -103.32,-220.1 -89.61,-227.5 13.6,-7.2 62.11,59.5 109.42,146.9 47.42,87.6 94.76,154 103.63,148.9 8.79,-5.1 -86.48,-184.1 -200.86,-404.6 -40.23,-77.6 -72.69,-143.3 -97.42,-195.7 -83.91,-179.9 -92.74,-230.4 -78.13,-263.6 18.52,-42.7 -10.62,-121.6 -107.03,-366.4 -68.08,-172.7 -135.93,-335 -155.31,-354.9 -21.05,-21.6 -119.88,-270.1 -205,-563.2 -84.77,-291.4 -155.55,-583.6 -174.92,-645.1 -19.42,-61.7 -29.49,-132.3 -23.2,-157.6 6.52,-25.9 -16.61,-200.6 -38.72,-364.1 -22.3,-164.9 -44.1,-323.2 -55.46,-321.8 -8.75,1.1 -23.36,-57.5 -31.45,-130.6 -10.78,-97.3 -1.05,-87.6 28.05,7.2 94.49,307.6 37.07,-58.4 11.21,-732 -20.08,-523.2 12.93,-777 37.19,-868.1 32.5,-122.3 37.85,-177.7 28.63,-300.1 -17.23,-228 2.22,-315.2 71.56,-390.3 44.81,-48.4 72.81,-138.4 95.94,-291.2 18.44,-121.8 26.52,-227.6 14.84,-234.7 -11.76,-7.2 11.13,-62.5 51.92,-121.8 54.37,-79.7 80.19,-157.2 101.83,-296.8 11.88,-76.6 23.17,-138.6 33.52,-194.7 326.87,-66.4 718.83,-254.9 1110.08,-315.5 400.27,-61.8 766.99,3.8 1096.83,323.8 232.54,225.6 433.13,505.9 612.89,808.1 -96.72,351.5 -138.44,580.6 -186.91,797.2 -28.24,126.1 -54.69,350.8 -58.87,553.9 -6.33,310.3 6.09,345.9 45.86,344.7 33.63,-1.1 43.24,-55.2 51.06,-222.2 5.62,-120.1 5.66,-244.4 -3.4,-272.1 -19.65,-59.9 8.9,-229.9 38.36,-227.5 10.19,0.8 10.66,36.9 1.52,80.2 -9.1,43.5 -2.03,79.8 15.08,80.8 24.84,1.3 24.88,25 5.15,110.4 -38.75,167.2 18.44,215.9 77.46,105.9 57.5,-107.1 65.9,-171.1 27.58,-241.7 -15.04,-27.7 -19.33,-99.6 -8.79,-160.5 10.32,-59.4 11.76,-154 3.21,-206 -9.07,-54.3 -8.87,-149.7 0.97,-217.2 11.8,-81 24.38,19.8 44.46,213.3 18.9,182.5 48.51,329.3 55.62,329.8 7.03,0.5 35.98,-72.3 66.45,-160.1 42.34,-121.7 50.93,-151.1 19.92,-115.5 -20.47,23.7 -34.02,10.5 -29.45,-30.3 4.57,-40.5 18,-72.5 29.37,-71 14.45,1.8 17.66,-32.5 12.93,-112.9 -4.96,-84.3 2.03,-117.8 28.09,-150.2 111.09,215.9 218.75,444.1 322.97,675.4 -9.18,394.7 15.58,496.7 43.32,496.2 31.56,-0.6 35.5,82.5 13.2,188.7 -8.01,38.5 -7.38,276.6 74.84,689.4 66.45,333.1 150.98,612 151.29,632.9 0.27,20.8 -56.56,-137.6 -109.84,-358.5 -82.23,-340.9 -103.64,-525.4 -124.26,-620 -20.59,-94.5 -35.94,-101.1 -65,-98.5 -51.33,4.7 -64.88,16.2 -3.87,420.4 47.93,317.1 134.85,644.3 246.53,939.1 104.72,276.5 209.41,465.7 218.01,449.3 11.3,-21.3 22.1,7.6 54,115.3 10.5,35.3 20.9,65.3 31.7,91.4 20.9,51.7 44.2,90.4 76.1,129.6 38,46.3 59,82.5 49.3,87.8 -28.1,15.4 110,286 160.3,321.3 23.8,16.8 164.5,235 370.6,501.3 347,448.2 377.1,440.1 409.2,408.8 17.9,-17.5 58.6,-12 90.4,11.5 32.1,23.6 50.9,23.8 42.2,1.3 -8.8,-23 18.4,-5.6 60.5,36.4 0.3,0 0.7,0.1 0.9,0.1 z m -256.2,-267.6 c 24.8,27.8 51.8,59.4 72.8,85.5 l -0.2,0.1 c 31.7,39.7 24,41.4 -64.4,-57.2 -82.3,-91.7 -103.4,-125.4 -74.7,-98.5 17,16 41.4,42 66.4,70.1 z m 8461.3,-105.3 c 18.9,-20.8 19.8,-16.6 1.1,15.4 -31.5,54 -112.1,158.9 -191.3,244.4 -184.4,199 -146.6,151.7 72.4,-116.2 62.2,-76.2 96.4,-119.8 117.8,-143.5 z m -510.7,583 c 17.7,-16.5 38.8,-34.8 59,-50 l 0.1,0.1 c 40.3,-30.8 39.7,-22.7 -23.2,37.5 -54.3,51.9 -86.9,74.3 -74.3,54.9 6.7,-10.2 20.9,-25.6 38.5,-42.3 z m -7582.4,-10.3 v 0 c 13.1,14.1 19.8,24.5 16.4,28.2 -6.6,7.5 -47.3,-18.4 -89.7,-58.7 -42.3,-40.2 -73.9,-76.2 -71.1,-79.2 2.7,-2.9 42.4,24.8 88.5,60.4 23.1,17.8 42.9,35.2 55.9,49.3 z M 9621.48,14746.6 c -1.05,-23 -2.96,-51.8 -5.31,-83.9 h 0.08 c -13.79,-193.1 -29.45,-514.8 -42.54,-515.4 -6.17,-0.2 -24.73,55.9 -39.73,125.7 -32.53,151.6 -31.99,285.4 -5.35,344 10.47,23 16.57,90.9 14.34,149.6 -6.02,154.7 70.82,117.7 79.02,30.5 0.86,-9.9 0.59,-27.4 -0.51,-50.5 z m 3854.62,5192.3 c 0.7,3.1 26.8,20.2 81.4,52.6 137.5,81.7 205.7,101.6 268.6,92.3 26.1,-3.8 1,-18.8 -53,-34.2 -59.1,-16.8 -148.4,-48.8 -217,-78.4 -53.8,-23.2 -80.2,-35 -80,-32.3 z m -592.7,-235.9 c -37.1,-15.8 -60.7,-24.4 -62.7,-20.3 -3.9,8 96.6,67.3 226.4,124.6 277.9,123 262.6,101 -21.8,-37.9 -54.2,-26.6 -105.3,-50.8 -141.9,-66.4 z m 4535.7,175.6 c 34.9,-13.7 74.2,-28.2 105.9,-38.9 l 0.1,0.2 c 45.8,-15.2 49.6,-8.9 -76.5,41 -116.9,46.4 -153.3,52.7 -119.2,36 21.3,-10.5 54.5,-24.4 89.7,-38.3 z M 20746.9,16540 h 0.1 c 7.8,-16.7 12.8,-21.4 13.2,-9.3 0.9,24.3 -15,86.2 -36.6,138.9 -72.6,177.7 -44.8,70.2 -7.2,-46.2 12.2,-37.3 22.5,-66.6 30.4,-83.4 z m -4647.7,3708.6 v 0.2 c -284,37.1 -547.2,57.3 -822.4,63.7 -248.2,5.7 -427.3,-1.4 -410.5,7.2 17.1,8.9 -23.7,11.8 -92.5,3.8 -96.1,-10.9 -125.6,-1 -131.4,50.3 l -7.3,65.6 c 169.9,20.3 341.1,33.1 512.8,38.9 325.2,10.8 575.6,-16.8 676.7,-41.6 86.4,-21.1 176,-43.2 192.7,-45.1 18.4,-2.1 45.5,5.7 59.9,17.3 14.7,11.7 87,10.3 160.9,-4.8 106.4,-21.6 122.1,-38.9 83.4,-75.1 -27.5,-25.7 -19.2,-56.7 17.4,-69.3 178,-60.9 14.7,-44.4 -239.8,-11.1 z m -1843.3,-26.3 c -40.6,-6.9 -108.1,-18 -176.8,-30.5 -196.3,-35.5 -375.2,-82.7 -480.3,-116 -87.2,-27.7 -160.8,-44 -164.5,-33.1 -4.1,12.2 58.8,38.7 165.1,64.6 99.5,24.3 171.4,46.8 168.4,57.8 -2.8,10.2 -67,1.4 -142,-21.7 -254.7,-78.4 -145.8,-3.2 108.9,75.3 161.4,49.5 252.1,80 237.9,91.8 -12.4,10.3 24.6,30.2 83.6,43 58.9,12.8 109,13.4 111.1,2.5 2.1,-11 62.9,-2.9 136,16 166.1,43 233.9,-2.8 155.4,-78 -25.4,-24.3 -45.8,-38.1 -97.8,-51.2 v 0.1 c -26.3,-6.6 -59.1,-12.7 -105,-20.6 z M 9518.87,14896 c -2.58,-22 -6.84,-52.3 -12.07,-92.7 -10.51,-80 -29.07,-145.6 -43.21,-145.1 -35.39,1.6 -21.6,197.7 18.99,249.5 23.4,30 35.35,43.8 38.28,30.5 h -0.08 c 1.45,-6.7 0.67,-20.2 -1.91,-42.2 z m 7.81,195.5 c -4.14,-37.7 -15.59,-67.7 -25.78,-66.7 -10.16,1.1 -13.44,53.4 -6.06,116.3 7.46,63.3 20.08,92 26.92,66.4 6.87,-25.9 9.06,-78.7 4.92,-116 z m 3725.12,4922.6 c -52.7,-20.2 -98.8,-29.9 -102.6,-20.2 -3.8,9.6 54.7,42.9 130.8,71.3 76.7,28.7 122.1,34.7 103.2,17.3 -19.1,-17.4 -79.2,-48.4 -131.4,-68.4 z m -240.5,-88.1 c -16.6,-8.5 -35.9,-17.2 -54.4,-24.2 -36.9,-14.2 -71.2,-22.5 -75.3,-13.4 -1.9,4.1 42.4,29.2 98.9,54.3 57.2,25.4 87.1,28.1 68.9,9.1 -7.7,-8 -21.5,-17.1 -38.1,-25.8 z m 5110.6,-207.3 c 33.7,-18.4 71.9,-38.4 102.8,-53.3 l 0.1,0.1 c 44,-21.3 49.8,-16.1 -72.9,51.4 -113.1,62.4 -148.1,72.9 -116.2,52 20.2,-13.3 52.2,-31.7 86.2,-50.2 z m -786.6,372 c 30.6,-10.9 62.2,-21.1 86.2,-27.3 41,-10.7 19.1,4 -81.8,40 -100.9,36 -127.4,38.6 -88.6,20.7 22.6,-10.3 53.5,-22.5 84.2,-33.4 z m -7924.25,-5718 c 6.1,-123 -7.61,-235.9 -41.17,-380.3 -49.02,-210.8 -35.82,-407.2 6.21,-324.5 24.42,48.1 24.34,34.4 16.25,-75.6 -5.19,-70.5 -20.62,-130.5 -35.82,-132.9 -21.99,-3.3 -41.32,65.2 -59.02,334.8 -12.3,187 -20.66,340.5 -29.57,340.1 -37.42,-1.6 -18.16,148.3 46.64,300.7 55.55,130.6 73.48,137.3 84.1,62.7 6.13,-43.3 10.39,-84.4 12.38,-125 z m 3982.35,5753.4 c -4.4,-1.6 -8.8,-2.9 -13.1,-3.9 -25.9,-5.9 -48.2,-2 -52.6,10.6 -4.5,12.6 10.5,29.9 34.7,41.5 4,2 8.3,3.8 12.8,5.4 31.4,11.1 61.1,7.8 65.9,-7 4.9,-14.7 -16.7,-35.5 -47.7,-46.6 z m -1099.8,-524.5 c -34.3,-21.1 -68.8,-28 -76.9,-14.7 -8.1,13.2 13.5,41.9 48.1,63.1 34.6,21.3 69.5,27.3 77.3,13.9 7.7,-13.4 -14.2,-41.3 -48.5,-62.3 z M 9473.4,15401.8 c -0.67,-28.7 -13.17,-71.8 -35.9,-111.7 0,-0.1 0,-0.1 -0.04,-0.1 -14.73,-25.5 -30.66,-13.3 -34.84,28.4 -4.96,49.3 8.16,87.7 37.15,109.4 23.39,17.7 34.33,2.8 33.63,-26 z m 3409.8,4526.9 c -208.1,-96.4 -377.3,-182.2 -382.2,-173.1 -4.9,9.1 156.2,110.4 366.5,208.1 218.8,101.6 388.7,154 392.6,143.5 3.9,-10.7 -157.6,-77.2 -376.9,-178.5 z m -976.2,-574.6 v 0 c -125.2,-96 -220.9,-166.4 -227.5,-157.8 -6.5,8.4 -60.4,-30 -119.4,-87.9 -58.2,-57 -109.9,-98.2 -116.7,-91.1 -6.5,9.2 96.7,108 228.9,213.1 137.8,109.5 286.7,210.2 385.5,262.8 203.7,108.7 95.1,49.1 -150.8,-139.1 z m 1795.1,899.1 c -12.7,-3.9 -24.2,-6.5 -34.1,-7.8 l 0.1,-0.1 c -62.6,-8 -67.3,-2.1 -3,28.5 56,26.6 42.1,34.4 -77.1,15.1 -112.7,-18.2 -178.9,-40.2 -238.8,-76.2 -2.5,-1.4 -5,-2.9 -7.5,-4.5 -51,-31.2 -103.8,-52.6 -130.9,-51.6 -48.9,1.6 5.3,44.4 124.2,97.5 78.2,35.5 180.6,73.5 296.5,105.3 154.1,42.3 312.8,84.2 336.6,96.1 v 0.1 c 35.5,18.1 199.3,57.8 367.3,85 164.5,26.5 322,38.6 321.5,29.5 1.2,-48.5 -139.8,-76.4 -425.4,-116.7 -165.4,-23.3 -299.9,-56.8 -298.1,-64.6 1.8,-27.9 -144.2,-109 -231.4,-135.6 0.1,0 0.1,0 0.1,0 z m -2872.4,-1847.6 c -123.3,-142.2 -210,-246.1 -196.1,-215 13.9,30.8 104.2,153.6 212,275.7 106.5,120.6 203.1,210.1 208.6,204.7 5.4,-5.4 -99.6,-121.5 -224.5,-265.4 z m 1969.5,1563 c -41.5,-20.2 -78,-36.7 -100.8,-44 -73.8,-23.5 -45.8,30 58.5,80.3 37,17.9 51.6,15.1 33.4,-4.8 -18.6,-20.5 -1.2,-21.3 37.3,-3.3 38.7,18.2 67.4,40.5 63.2,50 -4.2,9.4 38,37.9 94,62 56.1,24.1 104.9,35.6 108.3,26.9 5.8,-14.8 -169.2,-106.3 -293.9,-167.2 z m 6651.2,-1033.5 c 18.8,-18 41.2,-38 62.6,-54.7 42.4,-33.6 42.2,-25.8 -25,39.9 -57.8,56.4 -92.2,81 -78.6,60.4 7,-10.6 22.3,-27.5 41.2,-45.5 z m -7560.8,541.8 -0.2,0.3 c -56.2,-41.7 -92.5,-63.8 -98.1,-55.9 -6,8.3 -56.5,-18.2 -111.4,-60.4 -54,-41.6 -85.9,-60.7 -68.7,-38.5 l -0.1,0.1 c 42.8,55.1 209.3,187.6 385.9,301.8 172.4,111.5 341.6,196 349.7,181.5 5,-8.9 -24,-29.2 -64.4,-45.5 -41.4,-16.9 -118.1,-64.8 -173.9,-110.5 -85.3,-69.2 -163.7,-131.9 -218.8,-172.9 z m 619.1,422.3 c -54.2,-29.2 -102.3,-46.8 -107.3,-37.8 -4.9,9.2 35.2,41.7 89.8,71.2 54.7,29.5 103.4,44.9 108.1,35.7 4.6,-9.3 -36.5,-39.8 -90.6,-69.1 z M 9229.06,14285.6 c 0.71,-42 -6.72,-76.7 -16.95,-77 -10.23,-0.3 -19.57,34.1 -20.27,76.3 -0.75,42.3 7.46,77 17.65,77.1 10.24,0.1 18.87,-34.4 19.57,-76.4 z m 1327.54,3999.9 c -122,-155.7 -220.2,-284.2 -228.5,-278.2 -8.3,6 0.5,31.2 20.1,55.8 27,34 112.6,142.7 231.6,277.1 67.1,75.8 136.1,150 206.8,222.5 -79.4,-90.3 -156.1,-182.7 -230,-277.2 z m 2687.8,1976.5 c -12.7,-3.4 -16.1,-1.4 -6.8,7.1 17.8,16.4 -69.2,-1.9 -196.2,-49.4 -200.3,-74.9 -193.5,-67.3 64.2,37.2 82.9,33.7 152.4,57.5 203.5,72.5 140.5,42.2 127.8,20.3 12.2,-35.3 -4.3,-2 -8.6,-4.1 -13.2,-6.2 -28.8,-13.4 -50.9,-22.4 -63.8,-25.7 z m 421,156.2 c -18.4,-5.1 -34.9,-8.9 -48.5,-10.7 -83.7,-11 -107,36.3 -10,64.7 39.8,11.6 74.7,12.5 77.4,2.5 8.2,-30.5 137.6,15.1 175.8,60.7 47.8,56.6 347.2,180.5 425.3,174.6 27,-2.1 52,-23.5 55.7,-47.5 3.7,-23.9 40.3,-38.2 81.6,-32.1 41.3,6 76.2,1.9 77.6,-8.4 1.3,-10.2 -81.8,-29.5 -183.8,-46.3 -112,-18.5 -187.1,-23.2 -190.2,-6.9 -2.8,14.7 -44,25.1 -91.7,22.5 -51.9,-2.8 -70.5,-12.5 -47.1,-23.2 32.1,-14.6 -133.5,-86.8 -261.8,-130.9 0,0 0,0 -0.1,0 -21.3,-7.4 -41.7,-13.9 -60.2,-19 z m -2187.9,-1146.8 c -52,-42.8 -84.1,-59.6 -70.5,-34.3 13.4,24.8 34.4,53.3 47.1,63.7 12.5,10.3 44.2,25.3 71,33.5 27.1,8.2 4.4,-20.1 -47.6,-62.9 z m -841.4,-826.6 h -0.1 c -76.1,-91 -148.3,-175.7 -157,-169.4 -7.5,6 61.2,107.9 158.5,222.1 98.1,115.4 173.8,184.9 165.7,163.7 -10.1,-26.4 -91.9,-126.3 -167.1,-216.4 z m 4047.3,2199.4 c -57.6,-5.6 -109,-5.4 -110.3,6.3 -1.3,10.3 52.8,25.4 120.2,32.2 83.7,8.4 110.3,21.4 81.2,44.4 -24.7,19.6 2.8,41.7 70.2,53.1 v -0.1 c 177.9,30.3 212.6,21.1 188.6,-20.5 -4.7,-8 26.2,-12.8 68.3,-11.4 42.3,1.5 77.2,-11.4 77.5,-28.3 0.5,-21.1 -45.6,-27.9 -151.7,-26 -84.5,1.5 -170.8,-7.8 -194,-19.4 -27.4,-13.6 -92.7,-24.7 -150,-30.2 z m -3738.6,-1835.3 c -40.3,-41.4 -71.4,-65.9 -79.9,-57.6 -7.4,7.2 51.9,82.4 134.9,164.4 127.1,125.7 128.3,115.4 81.5,53.7 -45.6,-60.1 -96.7,-119.7 -136.5,-160.5 z m 6894.6,1342.8 c 23.5,-10.7 51.2,-22.2 76.8,-30.9 v 0.1 c 50.1,-17.6 49,-10.7 -36.5,29.4 -73,34.3 -113.4,45.9 -93.9,31 10.4,-7.8 30,-18.6 53.6,-29.4 z m -8618.89,-6698 h -0.08 c -4.88,39.5 -12.58,61 -22.23,59.6 -7.93,-1.1 -5.58,-79.4 8.05,-173.5 21.17,-147.1 25.47,-132.9 23.79,-54.6 -1.41,71.4 -4.34,128.8 -9.53,168.5 z m 3457.59,6646.1 v 0 c -11.7,-7.3 -29,-15.1 -49,-21.6 -40,-12.8 -74.5,-20.5 -76.5,-16.4 -2,4.1 26.7,23.2 64.2,41.9 37.5,18.8 72.1,25.4 76.8,15.5 2.3,-4.9 -3.9,-12.1 -15.5,-19.4 z m 576.4,247.5 v 0 c -39.7,-11.8 -76,-17.7 -79.4,-8.5 -1.5,4.3 46.7,26.6 107.7,48 2,0.7 4,1.4 5.9,2.1 57.7,20 86.4,20.5 66.4,3 -11.2,-9.7 -32.8,-20.4 -57.1,-29.9 -14,-5.4 -29,-10.5 -43.5,-14.7 z m -1411.3,-726.9 c -71.1,-49.8 -130.2,-89.4 -132.6,-86.1 -10.4,14.5 172.6,155.7 215.5,165 26.7,5.7 -12.4,-29.6 -82.9,-78.9 z m 2344.3,1009.6 c 43.5,8.1 78,22.5 76.3,32.7 -1.7,10.3 -18.1,16.2 -36.4,13 -18.5,-3.3 -52.6,-18.2 -76.3,-33.4 -23.9,-15.2 -6.8,-20.3 36.4,-12.3 z m 442.5,160.2 c -39.8,-4.3 -73.5,0.2 -74.7,10.5 -1.2,10.3 52,25.4 118.6,32.1 67.2,6.9 99.8,0.7 74.9,-11.8 -25.1,-12.5 -79.3,-26.5 -118.8,-30.8 z m 6941.5,-5164.7 c 7.4,-41.3 16.5,-87.6 24.7,-124.3 h 0.2 c 11.7,-51.7 19.6,-54.3 -7.1,97.2 -24.6,139.7 -38.8,176.3 -34.4,135 2.8,-26.3 9.1,-66.1 16.6,-107.9 z M 9112.38,13159.7 c -4.06,13.8 -9.29,21.7 -14.65,20.7 -10.62,-2 -12.93,-38.6 -4.45,-81.3 8.44,-42.6 19.53,-76.6 23.87,-75.6 4.41,0.9 5.62,37.6 3.44,81.2 -1.29,21.8 -4.11,41.3 -8.32,55 z m -93.24,1909.7 c -20,-202.2 -22.42,-245.5 -40.78,-154 -10.78,53.8 -29.65,76.6 -42.74,48.9 -13.04,-27.7 -18.55,19.7 -9.1,115 10.86,110 6.41,166.3 -17.5,169.4 h -0.07 c -19.73,2.5 -36.68,47.3 -36.88,99.9 -0.23,65.8 10.66,78.6 33.05,44.3 29.37,-45.4 32.18,-27.9 36.99,104.3 10,274.5 33.79,128.3 45.82,-57.4 7.27,-112.5 26.21,-183.5 38.24,-161 12.7,23.6 6.56,-72 -6.99,-209.4 z m 12675.96,-572.7 c 0.7,-65.4 8.6,-119.2 18.9,-119.2 10.2,-0.1 19.2,53.7 18.5,119.6 -0.7,66 -10.7,119.5 -20.9,119.2 -10.2,-0.3 -17.1,-54.2 -16.5,-119.6 z m -515.1,2488.4 c 14,-32.3 29.1,-65 41.6,-88.7 21.1,-39.9 16.8,-13.1 -29.4,94.1 -46.3,107.4 -62.7,128.8 -48.1,85.9 8.6,-25.5 22,-58.9 35.9,-91.3 z m -4748.1,3807.4 v 0.2 c -26.7,4.7 -49.5,10.4 -61.9,15.5 v 0 c -23.7,9.9 20.6,8.1 103.1,-7.5 96.7,-18.2 100.4,-24.7 44.7,-19.8 v 0.1 c -28.1,2.6 -59.2,6.8 -85.9,11.5 z M 21316,16695.2 c 9.2,-25.4 20.9,-54.5 32.9,-80 23.3,-50 27.4,-45 -5.5,48.5 -27.9,79.5 -48.2,118.4 -45,93 1.8,-13.1 8.6,-35.8 17.7,-61.4 z m 388.5,-2889.5 c -7.7,-84.8 -6.4,-136.4 5.9,-112.2 11.8,23.4 21.4,-1.9 20.2,-58.1 -1,-44.5 12,2.8 27.1,155.9 19.8,201.3 11.4,244.7 -10,213.8 -16.6,-23.9 -35.5,-114.7 -43.2,-199.5 z m -366.8,2994.5 c 7.7,-21.8 15.4,-42.3 23,-59.7 35.9,-83 49.7,-93.4 -1.6,106.3 -35.9,140.4 -104.5,323.7 -183.1,490.5 -75.4,160 -149.6,281.8 -162.3,274.5 -10.4,-5.9 37.9,-96.7 118.3,-240.9 92.9,-166.7 134.1,-276.9 150.5,-370.5 9.4,-53.8 32.7,-135.7 55.2,-200.2 z m -3097.5,3512.3 c -28.1,14.2 -53.3,27.1 -75.3,38.6 -75.8,40.2 -114.2,64.7 -90,63 16.2,-1.1 55.6,-13.9 103.9,-33.8 37.7,-15.5 80,-34.8 121.7,-56.3 94.8,-48.8 167,-99.2 162,-108.3 -4.9,-9.1 -104,37 -222.3,96.8 z m 3262.9,-8090.1 c 14.2,42 33.3,73.8 43.1,70.5 9.7,-3.2 6.4,-40.6 -8,-82.8 -14.3,-42.3 -34.4,-73.9 -44.1,-70.4 -9.6,3.5 -5.3,40.8 9,82.7 z M 14372.4,7840.59 c -27.5,4.21 -59.3,8.12 -88.3,9.84 v -0.08 c -57.1,3.83 -53.5,-2.42 46.3,-18.83 85.2,-14.06 130.6,-14.8 106.1,-5.47 -13,4.85 -36.5,9.97 -64.1,14.38 z m 6944.2,3760.21 c 34.4,75.3 78.8,157.3 98.2,178 20,21.3 -1.8,-56.9 -64.4,-193.8 -17.1,-37.4 -33.1,-69.9 -47,-96.7 -36.6,-70.6 -59.1,-100.5 -56.8,-78.5 1.7,16.6 12.9,51.5 28.5,92.4 11.9,30.8 26.5,66 41.5,98.6 z m 606.3,2635.1 h 0.1 c -1,15 0,35.5 3.6,58 7.2,45.1 16.3,82 20.8,82 4.5,0 8,-37.1 7.2,-82.5 -0.9,-45.4 -11,-82.3 -21.8,-82 -5.4,0.2 -8.8,9.7 -9.9,24.5 z M 19310.3,8873.44 c 55.1,40.97 101.6,72.77 104,69.53 2.5,-3.24 -37.2,-44.34 -89.1,-90.31 -51.8,-46.1 -99.6,-76.06 -105.3,-67.89 -5.7,8.24 35.3,47.65 90.4,88.63 z m -1129.4,-705.71 c 202.6,98.56 418.5,212.27 453.2,218.05 48.6,8.17 -4.6,-53.32 -508,-292.34 v 0.08 c -78,-36.96 -194,-94.97 -231.8,-117.07 -103.4,-60.36 -182.8,-69.07 -146.1,-22.7 15.9,19.96 228,114.45 432.7,213.95 z m -6283,314.07 -0.1,-0.04 c 0,0 -0.1,0.04 -0.1,0.04 -32.3,15.97 -39.5,2.38 -19.8,-42.39 0.1,-0.03 0.1,-0.07 0.1,-0.07 21.8,-49.3 48.8,-69.65 138.6,-99.14 97.4,-31.92 91.5,-20.59 5.3,50.66 -33.1,27.34 -60.5,48.87 -82.8,64.88 -16.6,12.19 -30.5,20.55 -41.3,26.06 z m 7665.5,524.68 0.1,-0.03 c 65.8,51.36 124.6,93.78 197.4,143.43 63.5,43.28 126.4,87.74 188.8,133.28 -56.9,-52.69 -114.7,-104.49 -173.2,-155.27 -96.7,-83.94 -183.4,-142.54 -190,-134.14 -8.3,10.55 -47,-21.8 -127.7,-101.25 -119,-117.03 -330.2,-272.5 -338.7,-259.53 -2.6,3.91 101.5,88.79 226.2,194.22 87.9,74.29 149.8,126.56 217.1,179.29 z M 17095.2,7737.07 c 228.7,62.73 438.9,131.84 432.1,117.66 -6,-12.46 -233.1,-101.96 -512.6,-174.22 -311.1,-80.16 -470.5,-93.05 -443.6,-81.6 48,20.31 295.5,75.31 524.1,138.16 z m 3065.5,1669.34 c 99.8,98.51 125,122.34 54.7,28.43 -100.7,-134.68 -250.2,-274.02 -215.3,-207.81 13.9,26.49 88.3,107.97 160.6,179.38 z m 2022.5,4043.99 c 119.9,922.5 33.1,1668.4 43.4,1645.2 11.1,-24.3 32.9,-193.5 40.2,-382.2 10,-257.4 25.7,-650.3 -22.3,-1184.2 -61.4,-683 -208.2,-1214.9 -323.2,-1549.7 -117.5,-341.8 -229.1,-559.5 -289,-652.5 -26.3,-41.2 -47,-65.8 -62.5,-76.2 -55.3,-37.5 -52.4,-13.6 10,102 19.7,36.1 45.2,81.7 76.5,138.3 78.1,141.6 113.6,232.8 115.1,270.4 1.5,34.8 280,673.2 411.8,1688.9 z M 12028.6,8109.8 c -26,14.34 -56.6,30.04 -84.8,42.62 -54.7,24.69 -55.2,18.32 40,-35.39 80.6,-45.55 125.1,-62.77 103.9,-44.96 -11.1,9.3 -33.1,23.2 -59.1,37.66 z m 1021.2,-470 c 36.7,-12.61 74,-26.44 101.1,-38.04 44.9,-19.18 17.3,-16.92 -105.2,25.19 -122.5,42.11 -145.9,57.43 -98.8,44.96 28.5,-7.53 66.3,-19.53 102.9,-32.11 z m 9434,6089.4 c 15.9,169 26.2,338.7 30.9,508.5 5.5,-149.2 6.6,-298.8 3.2,-448.6 v 0 c -6.3,-285.5 -42.8,-633.2 -111.3,-979.5 -63.9,-323.8 -139.5,-558.9 -140.8,-524.3 -1.5,40 49,259.9 98.3,541.1 54.8,312.1 90.7,592.9 119.8,902.7 z m 29.8,910.6 c -1.6,55.4 -2.7,114.5 -2.5,156.4 0.3,43.3 8.5,58.9 14.5,-156 6.1,-215.7 -3.1,-199.4 -5.7,-156.8 -2.6,41.8 -4.8,101 -6.3,156.4 z M 8571.09,11921.4 c -16.4,46 -37.18,81.1 -46.83,77.7 -9.65,-3.4 -4.69,-44.2 11.83,-90.5 16.53,-46.3 38.48,-81.1 48.05,-77.4 9.57,3.7 3.36,44.3 -13.05,90.2 z m 13558.81,32.5 c 24.6,67.5 37.8,97.9 37.8,80 0.1,-32.7 -64.3,-249.4 -161.2,-483.4 -70.1,-169.3 -128.1,-288 -151.4,-332.7 -22.9,-44.1 -22.9,-38.4 -6.3,3 13.5,33.5 95.5,225.4 168.9,422.5 50.7,136.1 87.4,242.6 112.2,310.6 z m 265.1,4112.4 c 0,0 0,0 0,0 0,0.1 0,0.1 0,0.1 -47.1,219.1 -104.3,435.9 -171.6,649.2 46.3,-122.5 89.3,-246.7 128.9,-372.2 80.1,-253.8 123.8,-397.3 159.5,-439.5 21.7,-25.6 38.4,-49.6 17.9,70.4 -12.6,74.3 -80.6,423.6 -250.1,895.1 -95.9,268.1 -243.9,629.7 -469.1,1040 -338.6,616.9 -684.4,1040.1 -811.4,1197.4 -123.4,153 -453.2,545.1 -938.5,957.6 -715.2,607.8 -845.9,625.4 -751.9,592.5 60.1,-21 142.5,-64.6 187.1,-98.8 43.6,-33.5 90.7,-56.9 104.9,-51.4 14,5.4 35.4,14.2 46,18.9 11.1,4.7 94.6,-45.7 184,-115.2 81.6,-63.3 221.5,-165.8 277.6,-201.6 373.5,-239 -380.5,296.9 -543.1,397.1 -118.4,73 -255.8,159.7 -286.5,185.4 -77.5,65 -61.2,116.2 42.9,49.2 42.4,-27.4 72.7,-56.5 67.9,-64 -8.9,-13.8 316.3,-227.6 526.4,-367.2 70.2,-46.8 189.2,-136.9 292.1,-224.5 123.2,-104.5 303.7,-265.7 506.1,-472.5 174.8,-178.5 342.8,-359.1 370,-376.9 35.8,-23.6 60.7,-58.6 68.1,-95.9 6.5,-32.2 140,-218 268.4,-403.5 126.7,-183.3 261.2,-385.2 295.8,-415.2 32.3,-27.9 101.5,-136.2 200.9,-348.9 72.2,-154 174.7,-375.4 200.4,-420.8 35.2,-62.2 76.4,-159.8 95.1,-224.4 13.7,-47.6 96.2,-264.4 154.2,-418.9 11,-29.5 22.4,-61.5 33.9,-95.4 57.7,-169.8 105.6,-353.3 130.1,-485.4 27.6,-149.1 85.2,-454 120.6,-679.3 93.3,-593.6 93,-1060.5 89.8,-1240.5 -3.9,-222.9 -14.6,-288.4 -23.8,-302.6 -12.3,-19.1 -18.3,-191 -33,-445.8 -17.2,-298.6 -47.4,-440.5 -72.3,-490.7 -26.9,-54.4 -31.9,-78.2 -15.2,-81 17.4,-4 -5.6,-197.2 -51.7,-404.5 -47.2,-212.4 -114.3,-422.7 -154.8,-493.3 -55.6,-96.6 -54.9,-68.9 -34.2,115 13.7,121.1 33.6,240.7 47.2,263 13.9,22.9 161.7,642.5 183,1387.6 24.8,865.8 -89.3,1535.8 -191.5,2011.3 0,0 -0.1,0 -0.1,0.1 z M 8574.77,11744.1 c -21.57,56.4 -49.46,128.7 -68.48,176.2 l 0.31,0.1 c -41.33,103.6 -24.14,35.3 45.67,-149.5 94.8,-251.1 86.99,-200 81.99,-185.7 -13.67,38.9 -36.84,99.9 -59.46,158.9 z m 13991.13,3796.5 c 4.5,-31.1 10.5,-66.9 17.7,-98.8 h 0.1 c 13.4,-61.8 18.7,-58.3 3.6,56.1 -12.8,96.7 -25.7,145.8 -27.1,116.5 -0.7,-15.5 1.6,-42.6 5.9,-73.8 0,0 -0.1,0 -0.1,0 z M 10817.7,8488.87 c -41.4,32.85 -80.2,53.75 -86.6,45.66 -6.5,-8.12 2.5,-26.41 19.6,-40.23 17.5,-14.03 56.2,-34.14 87,-45.12 31.1,-11.09 20.9,7.15 -20,39.69 z M 20400,19867.2 c 77.5,-74.5 210.3,-187.5 275.3,-232.9 93.8,-65.5 139.3,-95.4 -71.6,99.5 -266.3,246.2 -398.5,320.6 -203.7,133.4 z m 1269.2,-9338.1 h 0.1 c 31.9,53.4 68.4,110.6 106,166.3 l 0.1,-0.1 c 42.9,63.4 158.5,230.8 -60.6,-140.9 -166.8,-282.8 -155.5,-234.4 -126.2,-173.1 20.6,43.4 48.7,94.3 80.6,147.8 z M 18738.3,21138 c 0,0.1 -0.1,0.1 -0.1,0.1 0,0 0,0 0,0 -35.1,21.3 -36.4,31.9 -4.3,32.3 68.2,1.2 252.4,-92.1 310.2,-157.5 19.9,-22.5 -23.5,-11.5 -95,21.8 -106.9,49.7 -174.2,81 -210.7,103.3 z M 8616.33,11042.5 c -17.31,35 -35.98,71.1 -51.49,98.8 -1.13,-2.9 -3.2,-4.3 -4.76,-6.5 9.02,-21.6 20.31,-48.2 41.64,-91.7 61.6,-125.9 79.88,-147.5 60.19,-99.7 -11.48,28 -28.24,63.9 -45.62,99.1 0.04,0 0.04,0 0.04,0 z m -51.49,98.8 c 0,0 0.04,0.1 0.04,0.1 -0.04,0 -0.08,0 -0.11,0 0.03,0 0.03,0 0.07,-0.1 z M 12556,7321.37 c -62.8,25.23 -146,58.79 -192.3,76.79 -106.2,41.29 -23.5,-2.54 188,-87.5 211.7,-85.04 301.6,-110.43 196.2,-66.87 -46.3,19.18 -128.7,52.19 -191.9,77.58 z m -1301.7,684.49 c -34.5,22.93 -70.4,45.66 -97.7,61.29 -44.7,25.51 -25.7,4.61 90.5,-72.46 116.1,-77.03 142.6,-86.29 101.7,-55.08 -25,19.1 -59.9,43.36 -94.5,66.25 z m 8208.4,12809.24 c -403.9,270.5 -740.3,442.7 -714.9,438.8 35.6,-5.6 421.9,-200.2 773.3,-437.5 351.5,-237.4 665.7,-512.6 658.5,-521.3 -7.3,-8.8 -272.1,222.1 -716.9,520 z M 14051.8,6861.33 c 50.1,-8.67 90,-23.6 88.4,-33.87 -1.6,-10.23 -44.2,-12.15 -94.6,-3.44 -50.4,8.71 -89.9,24.81 -88.1,35 1.9,10.24 44.3,10.94 94.3,2.31 z M 10352,8583.2 c -103.9,94.1 -131.4,118.44 -45.8,18.68 55.2,-64.18 185,-186.26 311.3,-286.8 294.6,-234.69 143.3,-103.4 46.9,-16.17 -95.9,86.83 -235.9,215.15 -312.4,284.29 z m -357.98,331.96 c -13,11.05 -23.04,15.86 -26.87,11.99 -7.66,-7.81 15.82,-44.42 52.65,-80.94 36.9,-36.44 70,-63.09 73.1,-59.8 3.1,3.32 -21.2,39.29 -53.5,80.19 -16,20.59 -32.3,37.58 -45.38,48.56 z M 12560.9,6996.88 c -42.5,16.28 -118.2,39.33 -209.1,64.37 -106.8,29.34 -132.1,34.73 10.2,-24.34 83.4,-34.68 177.8,-62.5 212.7,-64.41 39.7,-2.15 28.5,8.16 -13.6,24.3 -0.1,0.04 -0.2,0.04 -0.3,0.11 z m 535.5,-201.49 c -236.7,70.7 -395.8,124.14 -325.3,89.3 v 0.08 c 56.6,-27.93 233.6,-88.95 416.9,-139.26 177.7,-48.79 344.5,-82.27 346.2,-74.77 0.9,3.95 -198,52.93 -437.8,124.65 z M 9733.79,8839.22 c -23.05,24.22 -50.43,51.52 -76.25,74.88 l -0.04,-0.08 c -49.34,45.12 -52.3,39.81 32.11,-50.47 71.17,-76.17 112.54,-110.31 95.31,-84.53 -8.98,13.48 -28.16,35.67 -51.21,60.12 z m 558.01,-536.99 c -43.2,35.54 -70.4,55.07 -73.8,51.05 -6.5,-7.66 107.8,-120 260.6,-242.46 324.3,-259.92 316.4,-245 -15.9,45.08 -67.5,59.02 -128.2,111.25 -170.9,146.33 z m 2478.7,-1480.86 c -52.9,18.28 -74.6,17.3 -46.3,-3.79 27.9,-20.9 68.8,-43.83 91.3,-51.41 22.2,-7.46 43.2,-5.39 46.4,4.49 3.1,9.85 -38.1,32.35 -91.4,50.71 z m -983.2,415.7 c -29.7,15.39 -64.6,32.42 -96.7,46.09 v -0.04 c -60.8,26.41 -63.4,20.94 46.7,-37.46 92.5,-49.14 142.7,-67.73 118.1,-49.02 -13,9.84 -38.3,24.65 -68.2,40.24 0.1,0.07 0.1,0.11 0.1,0.19 z m 365.7,-192.73 -0.1,-0.04 c -102.4,45.5 -114.8,-38.21 66.1,-130.04 115.5,-58.64 330.2,-148.13 565.8,-226.76 227.4,-75.9 433.3,-127.42 480.1,-130.82 43.3,-3.13 -21.2,19.53 -132.8,51.64 -127.6,36.72 -335.3,113.63 -518.2,197.77 -169.8,78.13 -308.2,141.1 -311.9,132 -3.7,-9.14 33.8,-33.48 83.7,-53.52 49.9,-20.04 88.2,-43.59 84.7,-53.01 -3.5,-9.41 -66.5,11.25 -139.3,47.42 -72.9,36.29 -125.4,81.84 -117.7,99.97 7.5,18.08 -19.8,47.34 -60.4,65.39 z m -356.9,116.64 c -33,16.72 -71.8,35.23 -117.4,56.4 v 0.04 c -92.8,43.13 -152,59.42 -133.5,32.93 l -0.1,-0.08 c 29.3,-41.79 198,-136.29 304.7,-177.97 42.3,-16.48 72.8,-23.94 76.5,-16.05 7.1,15.35 -10.6,35.63 -54.3,62.85 -19.9,12.46 -45.1,26.25 -75.9,41.92 z m 1759.2,-642.66 c -22.8,5.23 -70.5,7.7 -104.9,5.51 -34.1,-2.23 -18.6,-15.24 37.7,-28.6 55.6,-13.2 103,-14.96 105.2,-4.8 2.2,10.16 -14.9,22.62 -38,27.89 z m -2657.1,1138.71 c -73.5,50.27 -149.6,103.05 -211.2,145.39 l 0.1,0.08 c -173,119.14 1.7,-15 174.7,-134.1 223.8,-154.65 329.9,-212.93 230.5,-143.91 -49.8,34.49 -120.6,82.27 -194.1,132.54 z m 4432.4,-1382.07 c -33.8,0.27 -73,-0.43 -108.2,-2.77 v -0.08 c -67.4,-4.14 -66.2,-10.04 59.2,-12.11 105.4,-1.8 159.6,3.95 128.8,9.77 -16.1,2.93 -45.8,4.72 -79.8,5.07 z m -2689.2,451.88 c -50.9,18.24 -95.4,25.89 -98.9,16.13 -3.6,-9.73 35.3,-33.4 86.6,-51.76 51.1,-18.32 95.8,-24.65 99.1,-14.8 3.3,9.84 -35.9,32.22 -86.8,50.43 z m 3427.7,-614.38 c -18,-3.01 -28.9,-7.62 -28.5,-13.12 0.9,-10.98 46.7,-16.22 101.9,-10.9 55.1,5.31 99.8,14.02 99.3,18.51 -0.5,4.53 -46.4,8.6 -102,9.65 -27.7,0.43 -52.7,-1.05 -70.7,-4.18 z m -5020,1111.41 c -69.9,45.66 -128,75.82 -135.9,63.36 -5.7,-9.22 22.4,-33.21 63,-52.78 39,-18.79 127.7,-78.04 191.9,-126.83 199,-151.64 173.5,-117.39 89,-40.04 -54.2,49.61 -139.2,111.64 -208,156.29 z M 23245,17221.8 c 1.1,-3.1 2.2,-6.2 3.2,-9.4 14.3,-41 29.3,-82.2 41.8,-112.8 21.1,-51.5 19.4,-25.4 -29.2,117.3 -1.1,3 -2.2,6.2 -3.2,9.3 -52.2,150.9 -67.6,173.1 -52.5,119.7 9.7,-34.1 24.6,-79.9 39.9,-124.1 z M 16007.3,5899.96 c -23.4,-2.93 -7.3,-5.74 50.4,-8.01 90.6,-3.63 238.9,3.32 352,17.5 261.9,32.82 178.8,26.45 -198.9,3.32 -115.8,-7.11 -175.9,-9.49 -203.5,-12.81 z m 7610.8,10117.84 c 6.4,-35.5 14.8,-76.7 23.9,-113.1 h 0.1 c 16.8,-69 22.9,-68.4 0.2,64.4 -18.9,111.2 -35.5,166.3 -34.8,133.2 0.4,-17.4 4.5,-48.8 10.8,-84.5 z m -144.6,672.5 0.1,0.1 c 25.9,-94.9 45,-160.6 58.4,-191.1 13.1,-29.8 13,62.5 -108,456.7 -29.4,95.7 -60.4,190.9 -93.2,285.6 -30,86.1 -61.3,171.6 -94,256.5 29.4,-86.2 57.5,-172.8 84.2,-259.9 19,-62.8 37.4,-125.8 55,-188.9 39.5,-142.1 71.8,-264.5 97.5,-359 z M 10642.6,7262.58 c -29.5,20.35 -64.5,43.24 -96.6,62.3 -60.4,36.21 -64.5,31.64 45.3,-45.43 91.8,-64.57 142.2,-91.33 118.4,-68.51 -12.6,12.03 -37.5,31.05 -67.2,51.6 0.1,0.04 0.1,0.04 0.1,0.04 z m 13248.9,7146.32 h 0.1 c -0.2,-91.3 7.4,-135.2 20,-92.6 11.7,39.4 26.5,23.8 32.1,-37.2 5.6,-60.5 25.3,257.4 -0.7,705.9 -31.3,543.2 -81.2,759.1 -78.4,652.5 2.3,-87.9 27.6,-362 44.1,-610.4 16.6,-248.7 10.4,-452.4 0.2,-452.5 -10.3,-0.2 -17.2,-74.9 -17.4,-165.7 z M 22197.1,9139.22 c 0.1,0 0.1,0 0.2,0.04 -28.3,-38.24 -49.2,-69.92 -55.6,-85.67 -10.5,-26.48 3.4,-27.97 31.2,-2.46 76.2,70.08 281,363.21 265.5,374.14 -13.2,9.34 -156.8,-171.01 -241.2,-286.05 z m 1336.7,8035.48 c 98.7,-303.9 171.7,-575.3 172.7,-530.1 0.8,36.3 -65,327.1 -179.8,666.4 -10.4,30.5 -21.1,61.2 -32.2,92.2 -170.5,476.5 -254.9,621.6 -221.8,512.8 27.6,-90.6 129.8,-351 220,-617 14,-41.8 27.7,-83.1 41.1,-124.3 z m -2814.5,4091 c 28.2,-23.2 61.8,-49.4 92.7,-71.6 58.2,-42.1 62.6,-37.9 -42.3,49.8 -87.7,73.4 -136.6,105.5 -114.4,80.2 11.8,-13.3 35.6,-34.8 64,-58.3 z m 2166.9,-2523.9 c -57.4,118.2 -117.4,235.1 -180.1,350.7 -103.4,190.8 -211,376.6 -230,417.4 -45,96.7 -88.9,158.5 -256.2,325.8 -167.7,167.9 -114,107.5 42.9,-102.5 124,-166 274,-386.4 412.4,-618.1 73.4,-122.7 143.7,-247.2 211,-373.3 z M 18589.4,22577 v 0.1 l 0.1,0.1 c 384.6,-154.5 -173.7,220.9 -1562.2,531.6 -604.1,135.2 -1069.2,170 -1153.3,175.8 -155.1,10.7 -101.3,-0.7 -37.1,-15.9 65.2,-15.5 446,-52.2 841.7,-117.3 450,-74.2 868.6,-188.3 1167.6,-292.3 247.3,-85.9 580.2,-216.6 743.2,-282.1 z M 20014,6823.52 c -60.1,-38.56 -54.9,-43.72 37.9,2.3 199.8,99.02 204.4,111.56 135.8,89.14 -35.4,-11.56 -115,-53.83 -173.9,-91.56 0.1,0.04 0.1,0.08 0.1,0.12 z m 3905.3,5448.08 c -18.8,-78.6 -40.7,-189.9 -57.5,-294.8 -15.6,-98 -13.5,-129.3 53,127.8 41.8,161.1 62.9,295.9 52.9,298.1 -11.6,2.7 -29.2,-50.7 -48.4,-131.1 z m -11027.2,10766 c -106.7,-27.5 -431.3,-86 -483,-87 -13.4,-0.2 -18,1.9 -10.7,7 0.1,0 0.2,0.1 0.2,0.1 2.1,1.4 4.3,2.9 6.6,4.4 112.5,73 423.7,154.8 498.7,131.1 39.3,-12.5 54.4,-31 34.3,-40.9 -9.1,-4.3 -25.1,-9.3 -46.1,-14.7 z m 11323.3,-9131.3 c -3.3,-58.1 -6.6,-125.4 -8.3,-177.2 l 0.2,-0.1 c -1.7,-56.2 4.1,-97.9 18.4,134.8 12.7,206.7 6.1,244.2 1,195.1 -3.9,-36.6 -7.8,-93.5 -11.2,-152.6 z m -2028.1,6446.2 c 0,-0.1 0,-0.1 0.1,-0.1 v 0.1 c 8.9,-7.5 19.2,-9.4 29.1,-4.4 v 0 c 18,9.3 9.6,36.6 -19,60.8 -28.9,24.3 -43.3,16.2 -32.8,-16.9 5.9,-18.5 13.6,-31.9 22.6,-39.5 z m -9442.4,3189.7 c -56.4,-16.4 -137.8,-31.9 -177.4,-33.7 -39.3,-1.6 2.1,21 98.6,49.8 95.1,28.4 175.2,41.7 177.9,31.7 2.7,-10 -41.9,-31.2 -99.1,-47.8 z m 1055.7,278.8 c 96.1,16 145.2,31.5 103.8,35.9 -38.3,4.1 80.2,34.9 304,63.5 371.2,47.3 370.2,51.2 -80.9,6.2 0,0 -0.2,0 -0.2,0 -252.6,-25.1 -471.7,-58.4 -487.6,-59.7 -15.8,-1.4 -25.9,-19.3 -22.2,-39.7 3.8,-21.3 82.1,-22.9 183.1,-6.1 z m 8907.9,-3497.8 c 133.8,-172 161.5,-208.7 101.2,-86.1 -36.8,75 -165.9,256 -304.8,424.4 -135.5,164.3 -270.4,303.4 -280.5,293.8 -14,-13.3 241.5,-320.5 484.1,-632.1 z m -3882.2,3016.5 v 0 c -235.9,95.5 -430.6,169 -428.1,176.5 3.1,9.5 190.6,-49.8 383,-125.8 195.4,-77.1 386.1,-167 419.9,-194.2 29.8,-23.9 -140.9,48.8 -374.8,143.5 z m -3454.6,724.4 c 17,0.4 32.1,1.5 43.9,3.2 45.7,7.1 11.7,21.8 -81.7,31.2 -276.2,27.8 -256.3,-6.4 -139.1,-23.7 37,-5.5 80.8,-9.1 120.6,-10.5 v 0 c 20,-0.6 39.2,-0.7 56.3,-0.2 z m 7828.5,-4106.3 c 68.6,-96 152.8,-206.9 195.7,-246.9 25.2,-23.5 -23,68.7 -117.4,208.5 -101.5,150.5 -181.8,242.3 -194.4,232.9 -11.2,-8.4 46.4,-96.8 116.1,-194.5 z M 9186.52,21861.7 c -49.06,-41.9 -94.22,-70.3 -100.9,-62.4 -6.67,7.9 27.7,49.2 77.04,91.3 49.33,42 95.35,69.2 101.87,61.2 6.45,-8 -28.91,-48.3 -78.01,-90.1 z m 13231.68,-844.3 v 0 l 0.1,0.1 c 327.4,-361.9 650.3,-754.8 416.9,-422.3 -180.6,257.4 -460.4,559 -655.5,716 -230.7,185.7 -80,58.2 238.5,-293.8 z M 7414.06,19973.1 c -77.3,-113.1 -129.33,-179.3 -115,-138 14.03,40.3 51.29,111.1 84.46,159.6 33.08,48.4 85.23,108.4 117.53,135.9 32.97,27.9 -9.64,-44.4 -86.99,-157.5 z m 2000.04,2155.8 h -0.04 c -111.64,-86.7 -278.71,-205.4 -288.67,-193.3 h -0.04 c -13.63,16.5 85.67,102.6 272.85,222.5 82.07,52.6 125.43,69.6 100.2,42.6 -16.21,-17.3 -47.11,-42.9 -84.3,-71.9 z M 6341.05,18032.1 h -0.03 -0.08 c 61.09,153.8 108.67,281.3 100.27,285 -8.4,3.6 -68.59,-118.5 -128.63,-273.7 -142.19,-367.2 -116.49,-376.1 28.47,-11.3 z m 4498.55,5117.8 c 12.7,6.2 26.5,13.6 40.8,21.8 85.7,48.7 191.3,123.3 183.9,138.6 -5.5,11.3 -66.9,-20.5 -161,-86.4 -83.9,-58.8 -125.6,-98.5 -97.7,-88.7 9.8,3.4 21.3,8.4 34,14.7 z m 12007.7,-2477 c 16.2,-21.5 37.9,-41 70.7,-66.3 45.1,-34.8 91.2,-58.7 101.2,-50.7 23,14.7 -95.3,171.6 -177.5,231.9 -30.9,22.6 -44.2,4.6 -30.7,-38.8 9.9,-31.8 20.2,-54.7 36.3,-76.1 z m -398.3,505.5 c 41.4,-44.8 105,-102.5 139,-125.6 33.5,-22.7 8.5,19.4 -61.6,96.6 -69.3,76.3 -133.2,131.5 -140.6,124.3 -7.4,-7.2 21.3,-49.8 63.2,-95.3 z m -14149.74,171.3 c 29.29,31.8 68.9,78.2 111.17,130 84.18,103.3 150.98,191.2 145.39,197.2 -5.59,6 -82.81,-70.9 -168.71,-173.4 -85.9,-102.4 -147.89,-193.6 -140.66,-200.6 3.59,-3.6 23.43,14.7 52.81,46.8 z m -26.14,117.8 c 45.67,47.1 56.1,69.3 19.18,46.5 -36.87,-22.7 -103.32,-79.7 -149.96,-129.3 -46.56,-49.5 -53.36,-69.7 -18.39,-46.9 34.88,22.6 103.32,82.4 149.17,129.7 z m -357.5,-281.9 c 36.8,45.5 62.31,89.8 103.4,164.9 50.39,92.2 120.43,194.5 157.82,233.1 36.48,37.5 59.8,74.3 51.83,82.5 -7.97,8.1 -72.85,-51.3 -142.77,-133.7 -43.09,-50.8 -211.02,-244.9 -253.17,-292.6 -108.39,-122.6 -96.56,-120 -3.35,-46.3 113.35,89.7 81.28,53.1 -65.36,-118.3 -209.02,-244.5 -146.32,-181.6 -9.72,-52.8 79.57,75 124.02,117.3 161.32,163.2 z m 177.7,446.4 c 46.06,47.6 75.39,95.4 64.53,106.5 -10.78,11 -35.12,4.3 -53.98,-15 -19.18,-19.6 -48.05,-67.1 -64.57,-106.7 -16.53,-40 8.28,-32 54.02,15.2 z"
       style="fill:#1a1a1a;fill-opacity:1;fill-rule:nonzero;stroke:none"
       transform="matrix(0.13333333,0,0,-0.13333333,0,4000)" />
  </g>
</svg>
