<svg xmlns="http://www.w3.org/2000/svg" viewBox="0 0 400 240">
  <rect x="0" y="0" width="400" height="240" fill="white"/>
  <rect x="2" y="2" width="396" height="236" rx="8" fill="#f7f7f7" stroke="#d0d0d0" stroke-width="1.5" stroke-dasharray="5 3"/>
  <rect x="15" y="15" width="80" height="115" rx="4" fill="#e2e2e2"/>
  <rect x="105" y="15" width="80" height="115" rx="4" fill="#e6e6e6"/>
  <rect x="195" y="15" width="80" height="115" rx="4" fill="#e2e2e2"/>
  <rect x="285" y="15" width="100" height="115" rx="4" fill="#e6e6e6"/>
  <rect x="15" y="138" width="80" height="85" rx="4" fill="#e6e6e6"/>
  <rect x="105" y="138" width="80" height="85" rx="4" fill="#e2e2e2"/>
  <rect x="195" y="138" width="80" height="85" rx="4" fill="#e6e6e6"/>
  <rect x="285" y="138" width="100" height="85" rx="4" fill="#e2e2e2"/>
  <rect x="2" y="195" width="396" height="43" rx="4" fill="#ebebeb" stroke="none"/>
  <rect x="2" y="195" width="396" height="8" fill="#ebebeb"/>
  <line x1="2" y1="195" x2="398" y2="195" stroke="#d0d0d0" stroke-width="1"/>
  <rect x="28" y="205" width="26" height="26" rx="4" fill="#d0d0d0"/>
  <rect x="108" y="205" width="26" height="26" rx="4" fill="#d0d0d0"/>
  <rect x="188" y="205" width="26" height="26" rx="4" fill="#c0c0c0"/>
  <rect x="268" y="205" width="26" height="26" rx="4" fill="#d0d0d0"/>
  <rect x="348" y="205" width="26" height="26" rx="4" fill="#d0d0d0"/>
</svg>
