<svg xmlns="http://www.w3.org/2000/svg" viewBox="0 0 400 240">
  <rect x="0" y="0" width="400" height="240" fill="white"/>
  <rect x="2" y="2" width="396" height="236" rx="8" fill="#f7f7f7" stroke="#d0d0d0" stroke-width="1.5" stroke-dasharray="5 3"/>
  <rect x="2" y="2" width="396" height="145" rx="8" fill="#ececec" stroke="none"/>
  <rect x="2" y="137" width="396" height="10" fill="#ececec"/>
  <line x1="2" y1="145" x2="398" y2="145" stroke="#d0d0d0" stroke-width="1"/>
  <circle cx="48" cy="58" r="24" fill="#e0e0e0"/>
  <circle cx="116" cy="58" r="24" fill="#e0e0e0"/>
  <circle cx="184" cy="58" r="24" fill="#e0e0e0"/>
  <circle cx="252" cy="58" r="24" fill="#e0e0e0"/>
  <circle cx="320" cy="58" r="24" fill="#e0e0e0"/>
  <rect x="20" y="105" width="360" height="8" rx="4" fill="#d8d8d8"/>
  <rect x="20" y="105" width="190" height="8" rx="4" fill="#b8b8b8"/>
  <circle cx="210" cy="109" r="12" fill="#888"/>
  <rect x="40" y="170" width="320" height="8" rx="2" fill="#e5e5e5"/>
  <rect x="40" y="190" width="290" height="8" rx="2" fill="#e8e8e8"/>
  <rect x="40" y="210" width="305" height="8" rx="2" fill="#e8e8e8"/>
</svg>
