<svg xmlns="http://www.w3.org/2000/svg" viewBox="0 0 400 240">
  <rect x="0" y="0" width="400" height="240" fill="white"/>
  <rect x="2" y="2" width="396" height="236" rx="8" fill="#f7f7f7" stroke="#d0d0d0" stroke-width="1.5" stroke-dasharray="5 3"/>
  <rect x="158" y="8" width="84" height="16" rx="4" fill="#dcdcdc"/>
  <rect x="40" y="38" width="320" height="11" rx="2" fill="#d8d8d8"/>
  <rect x="40" y="60" width="310" height="8" rx="2" fill="#e5e5e5"/>
  <rect x="40" y="80" width="295" height="8" rx="2" fill="#e5e5e5"/>
  <rect x="40" y="100" width="315" height="8" rx="2" fill="#e5e5e5"/>
  <rect x="40" y="120" width="285" height="8" rx="2" fill="#e5e5e5"/>
  <rect x="40" y="140" width="305" height="8" rx="2" fill="#e5e5e5"/>
  <rect x="40" y="160" width="270" height="8" rx="2" fill="#e5e5e5"/>
  <rect x="40" y="180" width="290" height="8" rx="2" fill="#e5e5e5"/>
  <rect x="40" y="215" width="320" height="5" rx="2" fill="#ddd"/>
  <rect x="40" y="215" width="112" height="5" rx="2" fill="#aaa"/>
</svg>
